<svg xmlns="http://www.w3.org/2000/svg" data-name="Слой 1" viewBox="0 0 100 125" x="0px" y="0px"><title>кекс 47</title><g><path d="M76.60648,57.37653c-0.59929.88352-1.33046,1.46011-1.41909,2.17057-0.815,6.535-1.48268,13.10057-2.26722,19.64215-0.53714,4.47922-1.08122,8.96269-1.84639,13.38718-0.3252,1.88041-1.09351,2.95773-3.86,2.79148-5.72745-.34418-11.42147.38327-17.13975,0.58332-6.58332.23031-13.20445,0.5434-19.64221-2.42005a3.90245,3.90245,0,0,1-1.799-2.61359c-0.35673-3.62807-.3015-7.25921-0.61237-10.88962a75.55022,75.55022,0,0,0-1.27281-8.91038c-0.842-4.05282-1.85668-8.0908-2.97035-12.10167a32.45472,32.45472,0,0,0-2.18088-5.34606c-1.7705-3.65588-.31707-6.894,3.59408-7.82211,1.41075-.33476,2.80873-0.7096,4.2322-1.07116-1.89905-4.46828-1.58756-5.40989,2.49688-7.33564,1.36144-.64192,1.8-1.26552,1.10778-2.93184-2.07376-4.99164-3.92554-10.05823-5.78171-14.88191-1.29145,1.21131-2.43049,2.33745-3.64562,3.37753a1.3905,1.3905,0,0,1-1.2231.26287,1.98843,1.98843,0,0,1-.65532-1.40785c0.258-2.27146.64168-4.51806,1.03041-7.09693-1.23475-.30792-2.559-0.56615-3.84006-0.99289a5.51919,5.51919,0,0,1-1.40022-1.08606,12.18279,12.18279,0,0,1,1.18665-.91251,2.2472,2.2472,0,0,1,.71636-0.04c3.67546-.522,4.0383-0.98471,3.821-4.77062-0.05242-.9127-0.05627-1.82394-0.08247-2.73584l0.707-.31551a21.38421,21.38421,0,0,1,2.354,2.81861c0.95656,1.63214,1.8769,2.0479,3.5112,1.14282a32.51789,32.51789,0,0,1,4.66882-1.75615l0.82136,0.94413c-1.03311,1.28663-1.98754,2.64768-3.11663,3.84341-1.97982,2.0967-1.97964,2.36367.26929,4.63856,1.0618,1.074,2.57014,2.04806,1.83034,4.03073-1.33481-.47763-2.598-0.92961-4.31809-1.54511,1.7846,5.68944,3.40338,11.0033,5.17693,16.27779A2.52519,2.52519,0,0,0,36.99862,35.533a54.797,54.797,0,0,0,9.15533-2.19107c3.04308-1.13907,3.4804-3.24139,2.11436-6.4246a6.16347,6.16347,0,0,1-.19033-1.865l0.88648-.258a20.83548,20.83548,0,0,1,2.4,3.83c1.51825,4.245,4.67768,6.43927,8.735,7.36432,3.65653,0.83365,5.86493,2.88371,7.44552,6.30318,0.65667,1.42057,2.47882,2.67549,4.01593,3.41371,4.12352,1.98035,4.96438,5.3091,5.01112,9.12748C76.58321,55.74639,76.59674,56.65988,76.60648,57.37653Zm-4.39036,5.6353c-1.35717-.53552-2.39334-0.9328-3.42159-1.35362-0.89275-.36537-1.80912-1.09176-2.65893-1.08314-5.48.05555-10.95509,0.196-16.4043,0.50073-0.942.05268-1.7955,0.96824-2.61068,1.58465A17.02239,17.02239,0,0,0,45.433,64.32577c-0.63529-.74137-1.23708-1.51495-1.91662-2.21386a4.44872,4.44872,0,0,0-1.77806-1.47453c-4.37434-.709-8.76058-1.262-12.85414-1.82516-0.21823,1.252-.018,3.08022-0.71864,3.47974-1.305.74412-.9169,1.64408-0.75142,2.58906,0.55986,3.198,1.0855,6.4077,1.877,9.57122a4.73883,4.73883,0,0,0,2.01108,2.66982c2.44541,1.33434,2.62887,1.45838,1.04216,3.57284a13.061,13.061,0,0,1-2.21713,1.91318c0.40457,3.01348.82062,6.11229,1.162,8.65473,1.3189,0.51731,2.17892.80236,2.99568,1.19258,0.58458,0.27932,1.12277.98627,1.662,1.01164,4.36319,0.20524,8.72225.30287,13.08063,0.40351a1.51506,1.51506,0,0,0,1.07324-.32516c1.00018-1.13641,1.92307-2.34175,3.31044-4.06511,0.31983,0.63314.47847,1.03116,0.7079,1.38783a4.96747,4.96747,0,0,0,6.06433,2.38214,13.67485,13.67485,0,0,1,4.80739.1953c2.52756,0.312,4.35324-.66732,4.77829-2.93023a55.29581,55.29581,0,0,0,.87451-6.59546,4.25934,4.25934,0,0,0-.99378-2.17234,14.07963,14.07963,0,0,0-1.60136-1.70424c0.58579-.42707,1.15051-0.88493,1.765-1.26992a9.58457,9.58457,0,0,1,1.33343-.57487,33.78623,33.78623,0,0,0,.18791-3.99784,2.16428,2.16428,0,0,0-1.098-1.38781,1.71986,1.71986,0,0,0-1.27239.67056,12.66254,12.66254,0,0,0-1.17614,1.76191c-1.74109-1.49428-3.17784-2.72741-5.27752-4.52947,4.557,0.37864,3.21089-3.02764,4.10027-5.24566,1.084,1.12231,1.9022,1.96952,2.70742,2.80323C72.39495,65.79573,72.58661,65.41571,72.21612,63.01183ZM51.072,33.82085a34.45155,34.45155,0,0,0-3.57048,1.58609A52.92551,52.92551,0,0,0,42.36967,38.77c-1.44333,1.09053-1.53984,2.74157-.46929,4.27917,1.504,2.16027,1.00332,3.4295-1.12231,4.23052a21.91147,21.91147,0,0,0-3.04651,1.10464,11.16073,11.16073,0,0,0-3.19234,2.37342c-1.13487,1.37212-.53289,2.26472,1.333,2.87862a24.78812,24.78812,0,0,0,16.05914-.00952c-1.06053-1.24019-1.99794-2.44218-3.04631-3.54-2.11414-2.21393-2.173-3.24872-.37271-5.34573a43.86788,43.86788,0,0,0,3.36879-4.403C53.80885,37.4132,53.70309,36.9075,51.072,33.82085Zm-8.58527,2.6651q-0.289-.43956-0.5781-0.87913c-3.39388,1.2275-6.838,2.35251-10.15572,3.73548-1.241.51728-1.95961,1.615-1.18674,3.34945,1.18736,2.66479.86155,3.17738-1.90319,3.98861-0.74774.21942-1.50251,0.42093-2.24369,0.65675-3.38048,1.07553-4.08286,2.36673-3.2341,6.4449l8.8865-1.68476c0.26542-5.15419,5.79324-4.42171,9.36556-6.711C38.30363,41.77236,39.59965,38.95521,42.48671,36.48594ZM65.883,52.389l8.91941,1.4877C75.003,50.533,73.796,48.85409,69.61555,46.3694a9.56527,9.56527,0,0,1-3.7753-3.60365c-1.47313-3.19868-3.22-4.75671-6.78735-4.96465,0.2559,2.925.43245,5.85809,0.82459,8.78111a4.07743,4.07743,0,0,0,1.38877,2.1047C62.74015,49.9959,64.337,51.16458,65.883,52.389ZM56.02652,36.56428c-1.97761,2.72109-3.64507,5.142-5.4441,7.45725-2.02939,2.61167-1.9084,3.87023.71662,6.40764a4.99066,4.99066,0,0,1,1.6835,2.31164c0.21147,1.82607,1.112,1.99146,2.493,1.72559,2.68992-.51786,5.38228-1.02685,8.85539-1.68842C62.853,51.71531,61.93972,50.736,60.8624,50.361c-1.5452-.53792-2.37976-1.3048-2.52873-2.91167C58.114,45.07912,57.937,42.6959,57.4886,40.34456A20.87484,20.87484,0,0,0,56.02652,36.56428ZM66.42625,58.503l5.54851-3.46885H67.77908C67.39827,56.01052,67.00295,57.02421,66.42625,58.503ZM49.10376,55.814l0.249,2.8459c1.53346-.21176,3.098-0.40311,3.04648-2.5704Z"/><path d="M44.95123,72.03023a5.6203,5.6203,0,0,1-1.77972,1.08817,7.26915,7.26915,0,0,1-3.24-.08178c-2.8259-.97664-5.22163-1.17578-6.69613,1.73319a1.36832,1.36832,0,0,1-1.25657.21719,5.19187,5.19187,0,0,1-.98412-1.91075c-0.261-.98731-0.337-2.00788-0.54342-3.34972,3.45016-.95649.73-5.03891,2.31957-7.62546,2.5135,1.98423,4.8188,4.48152,8.03738,1.83591l0.2581,0.81416c-0.52653.8218-1.05311,1.64361-1.704,2.65962C40.9649,68.73539,42.73782,70.2008,44.95123,72.03023Z"/><path d="M47.61426,81.34076c0.68506,2.8837-2.84469,2.54462-2.80413,5.0076a19.84589,19.84589,0,0,1,1.66631,1.86982,1.30893,1.30893,0,0,1,.09117,1.23639,1.33037,1.33037,0,0,1-1.23569.21094c-3.21-3.5937-3.81118.12771-5.35467,1.51773l-3.08242-1.253L37.317,87.36871c-0.58657-.72729-1.14927-1.425-2.03259-2.52032,2.48884,0.11388,4.017-.327,4.07734-2.64488a3.09524,3.09524,0,0,1,1.69045-.38084c1.34509,2.50835,2.85792,1.03418,4.27907.58692A19.42822,19.42822,0,0,0,47.61426,81.34076Z"/><path d="M52.36986,67.77358a1.60368,1.60368,0,0,1-.7286-0.13183,15.48208,15.48208,0,0,1-1.30574-1.1903c0.42421-.23642.87213-0.441,1.26771-0.71595a25.44757,25.44757,0,0,0,2.34014-1.744A13.31383,13.31383,0,0,0,55.285,62.39842c0.53827,0.53256,1.07653,1.06512,1.84795,1.82838a27.76513,27.76513,0,0,1,3.30923-1.22422,4.05686,4.05686,0,0,1,1.71542.50448,3.43655,3.43655,0,0,1-.46324,1.56764c-1.02327.90107-2.19722,1.63569-3.39055,2.49176,0.5442,1.22207,1.09974,2.4697,1.657,3.72129-1.65471.52574-1.65471,0.52574-3.71843-1.81838-1.267.67829-2.5739,1.37789-4.62374,2.47522C51.92916,70.22039,52.13563,69.074,52.36986,67.77358Z"/><path d="M57.35141,83.1469c-0.61725-.62015-1.09662-1.10184-1.82278-1.83142,2.08884-1.0727,5.1652,1.24072,5.71245-2.0169,1.11486,1.3456,1.8297,2.68916,2.92472,3.40166a17.84707,17.84707,0,0,0,4.19629,1.47842q-0.01164.461-.02335,0.922L62.9,85.5071c0.01018,1.17619.0202,2.33148,0.03331,3.85106a4.53883,4.53883,0,0,1-1.53423-1.04431c-1.14979-3.08666-3.19484-2.80623-5.49984-2.08938a4.973,4.973,0,0,1-1.8957-.24912,8.22264,8.22264,0,0,1,1.06656-1.28679C55.72516,84.15494,56.47292,83.73058,57.35141,83.1469Z"/></g><text x="0" y="115" fill="#000000" font-size="5px" font-weight="bold" font-family="'Helvetica Neue', Helvetica, Arial-Unicode, Arial, Sans-serif">Created by Tatyana</text><text x="0" y="120" fill="#000000" font-size="5px" font-weight="bold" font-family="'Helvetica Neue', Helvetica, Arial-Unicode, Arial, Sans-serif">from the Noun Project</text></svg>